<?xml version="1.0" encoding="UTF-8"?>
<svg id="Ebene_2" data-name="Ebene 2" xmlns="http://www.w3.org/2000/svg" viewBox="0 0 366.03 341.27">
  <defs>
    <style>
      .cls-1 {
        fill: #3f2c20;
        stroke-width: 0px;
      }
    </style>
  </defs>
  <g id="_1" data-name="1">
    <path class="cls-1" d="M250.57,194.24l30.83-56.1,39.71,5.1,44.92-46.64-10.83-70.34-49.04-13.33.65-7.57L214.25,0h-122.95l-30.84,3.86.33,2.47L15.39,11.86,0,88.1l39.15,46.18,50.45,1.22,25.01,48.06,34.96,38.53,4.86,69.81-68.95,7.77-6.8,41.6h207.83l-4.86-52.28-58.54,2.91v-62.04l27.47-35.61ZM331.44,46.89l4.42,32.4-19.55,37.74-23.4-5.11,13.57-71.43,24.96,6.41ZM56.31,111.75l-26.57-25.47,5.12-49.85,26.42-5.81,1.37,54.86,17.03,28.35-23.37-2.08Z"/>
  </g>
</svg>