<?xml version="1.0" encoding="UTF-8"?>
<svg id="Ebene_2" data-name="Ebene 2" xmlns="http://www.w3.org/2000/svg" viewBox="0 0 389.48 451.2">
  <defs>
    <style>
      .cls-1 {
        fill: #3f2c20;
        stroke-width: 0px;
      }
    </style>
  </defs>
  <g id="_1" data-name="1">
    <g>
      <polygon class="cls-1" points="173.22 451.2 119.49 438.94 85.91 404.62 85.91 362.95 63.07 333.54 72.47 305.35 106.05 305.35 131.58 250.19 178.59 220.77 201.42 188.91 224.26 182.78 247.1 191.36 260.53 212.19 314.26 248.96 342.47 302.89 372.02 304.12 389.48 316.99 389.48 339.34 366.64 360.5 362.62 405.85 329.03 438.94 265.9 451.2 173.22 451.2"/>
      <polygon class="cls-1" points="209.17 207.27 197.4 134.35 175.9 90 200.08 20.15 226.28 0 244.41 21.49 263.21 92.68 237.69 134.35 233.66 216.26 209.17 207.27"/>
      <polygon class="cls-1" points="58.5 70.04 58.5 126.07 0 126.07 4.94 155.85 4.12 182.88 58.5 182.88 62.62 235.67 107.71 235.67 107.71 182.88 162.15 175.1 158.03 125.66 108.94 127.7 105.83 70.64 79.1 65.1 58.5 70.04"/>
    </g>
  </g>
</svg>