<?xml version="1.0" encoding="UTF-8"?>
<svg id="_1" data-name="1" xmlns="http://www.w3.org/2000/svg" viewBox="0 0 4848.94 451.2">
  <defs>
    <style>
      .cls-1 {
        fill: #3f2c20;
        stroke-width: 0px;
      }
    </style>
  </defs>
  <polygon class="cls-1" points="4831.48 304.12 4801.92 302.89 4773.72 248.96 4719.99 212.19 4706.55 191.36 4694.57 186.86 4697.15 134.35 4722.67 92.68 4703.87 21.49 4685.73 0 4659.54 20.15 4635.36 90 4656.85 134.35 4665.47 187.68 4660.88 188.91 4638.05 220.77 4591.03 250.19 4565.51 305.35 4531.93 305.35 4522.53 333.54 4545.36 362.95 4545.36 404.62 4578.94 438.94 4632.67 451.2 4725.36 451.2 4788.49 438.94 4822.07 405.85 4826.1 360.5 4848.94 339.34 4848.94 316.99 4831.48 304.12"/>
  <polygon class="cls-1" points="4517.96 70.04 4517.96 126.07 4459.46 126.07 4464.4 155.85 4463.58 182.88 4517.96 182.88 4522.08 235.67 4567.17 235.67 4567.17 182.88 4621.61 175.1 4617.49 125.66 4568.4 127.7 4565.28 70.64 4538.56 65.1 4517.96 70.04"/>
</svg>