<?xml version="1.0" encoding="UTF-8"?>
<svg id="_1" data-name="1" xmlns="http://www.w3.org/2000/svg" viewBox="0 0 5383.43 692.26">
  <defs>
    <style>
      .cls-1 {
        fill: #3f2c20;
        stroke-width: 0px;
      }
    </style>
  </defs>
  <polygon class="cls-1" points="5167.17 569.93 5113.44 557.67 5079.86 523.36 5079.86 481.68 5057.02 452.27 5066.42 424.08 5100.01 424.08 5125.53 368.92 5172.54 339.51 5195.38 307.64 5218.21 301.51 5241.05 310.09 5254.48 330.93 5308.21 367.7 5336.42 421.63 5365.97 422.85 5383.43 435.72 5383.43 458.08 5360.6 479.23 5356.57 524.58 5322.99 557.67 5259.85 569.93 5167.17 569.93"/>
  <polygon class="cls-1" points="5203.13 326 5191.35 253.08 5169.85 208.73 5194.03 138.88 5220.23 118.73 5238.36 140.22 5257.17 211.42 5231.64 253.08 5227.61 334.99 5203.13 326"/>
  <polygon class="cls-1" points="5052.46 188.77 5052.46 244.8 4993.95 244.8 4998.9 274.59 4998.07 301.61 5052.46 301.61 5056.58 354.4 5101.66 354.4 5101.66 301.61 5156.1 293.83 5151.98 244.39 5102.9 246.43 5099.78 189.37 5073.06 183.83 5052.46 188.77"/>
</svg>