<?xml version="1.0" encoding="UTF-8"?>
<svg id="Ebene_2" data-name="Ebene 2" xmlns="http://www.w3.org/2000/svg" viewBox="0 0 36.48 35.49">
  <defs>
    <style>
      .cls-1 {
        fill: #3f2c20;
      }

      .cls-1, .cls-2 {
        stroke-width: 0px;
      }

      .cls-2 {
        fill: #c5925a;
      }
    </style>
  </defs>
  <g id="_1" data-name="1">
    <g>
      <polygon class="cls-2" points="2.14 18.35 6.81 4.6 23.09 2.13 34.16 13.93 27.23 31.71 8.71 33.37 2.14 18.35"/>
      <path class="cls-1" d="M22.35,4.27l9.49,10.11-6.02,15.45-15.85,1.42-5.68-12.99,4.02-11.86,14.04-2.13M23.83,0l-2.08.31L7.71,2.44l-2.41.36-.78,2.3L.5,16.97l-.5,1.47.62,1.42,5.68,12.99,1.15,2.64,2.87-.26,15.85-1.42,2.47-.22.9-2.31,6.02-15.45.92-2.35-1.73-1.84L25.27,1.53l-1.44-1.53h0Z"/>
    </g>
  </g>
</svg>