<?xml version="1.0" encoding="UTF-8"?>
<svg id="Ebene_2" data-name="Ebene 2" xmlns="http://www.w3.org/2000/svg" viewBox="0 0 359.73 370.6">
  <defs>
    <style>
      .cls-1 {
        fill: #3f2c20;
        stroke-width: 0px;
      }
    </style>
  </defs>
  <g id="_1" data-name="1">
    <g>
      <path class="cls-1" d="M321.95,284.1l-43.28-55.64,28.89-53.2v-94.3L250.38,14.56,132.41,0,48.87,24.19,0,78.97v74.62l23.47,78.6,57.78,39.37,51.76,11.44,76.53-17.24,38.5,51.73,22.8,53.11h88.88v-53.84l-37.77-32.66ZM266.89,185.03l-41.44,40.81-77.86,18.81-49.35-2.99-40.88-21.44-22.55-66.43,2.55-72.05,65.11-42.31,83.45-2.96,58.02,22.32,24.79,60.24-1.84,66.01Z"/>
      <polygon class="cls-1" points="55.78 151.67 50.91 104.54 66.08 80.7 101.83 55.24 114.83 58.49 97.5 79.61 82.33 106.16 82.87 138.12 71.49 158.83 55.78 151.67"/>
    </g>
  </g>
</svg>