<?xml version="1.0" encoding="UTF-8"?>
<svg id="Ebene_2" data-name="Ebene 2" xmlns="http://www.w3.org/2000/svg" viewBox="0 0 302.68 315.43">
  <defs>
    <style>
      .cls-1 {
        fill: #3f2c20;
        stroke-width: 0px;
      }
    </style>
  </defs>
  <g id="_1" data-name="1">
    <g>
      <path class="cls-1" d="M68.75,4.04l-17.19,156.7-32.35,99.08-19.21,15.16,20.22,19.21,121.76,21.23,92.57-5.05,37.41-159.74V0L68.75,4.04ZM88.2,72.38l154.3,4.43-.23,8-154.3-4.43.23-8ZM167.2,180.88l-94.16-2.48.21-8,94.16,2.48-.21,8ZM250.24,135.28l-170.93-3.53.17-8,170.93,3.53-.17,8ZM94.95,41.57l-.11-8,162.59-2.28.11,8-162.59,2.28Z"/>
      <polygon class="cls-1" points="279.96 .35 279.96 150.64 279.96 151.56 279.74 152.46 243.49 307.3 276.61 307.3 302.68 305.18 302.68 231.24 302.68 12.94 279.96 .35"/>
    </g>
  </g>
</svg>