<?xml version="1.0" encoding="UTF-8"?>
<svg id="Ebene_2" data-name="Ebene 2" xmlns="http://www.w3.org/2000/svg" viewBox="0 0 332.94 347">
  <defs>
    <style>
      .cls-1 {
        fill: #3f2c20;
        stroke-width: 0px;
      }
    </style>
  </defs>
  <g id="_1" data-name="1">
    <g>
      <path class="cls-1" d="M324.48,272.57l-16.73-19.94,6.69-5.46,5.25-13.61-7.35-13.54-11.23-2.77-2.39-20.93-12.49-22.83-19.3-8.15-14.54-11.99-11.61.47-7.35-17.16,9.38-25.45,12.72-25.45,27.46-10.06,17.41-33.16,16.07-26.42h-46.88l-49.56,40.18-12.05,49.56,8.71,35.49,2.32,15.3-20.74,8.45-7.83,6.38,6.3,33.9.13.72v9.64l1.46-2.02,8.82-.88,8.68,12.06-3.31,5.66-5.55-9.71-6.02-1.34-4.08,6.11v16.64l9.26,48.82.52,2.75-1.3,2.47-16.86,31.97,9.78,6.56,70.91,3.48,47.3-11.76,16.47-21.48-8.45-32.52ZM235.74,281.86h-18.71l-9.05-13.06v-7.7h19.31l10.26-5.36,6.79-8.3,4.29,12.69-12.89,21.73ZM247.83,228.95l-7.67-10.07-6.29.81-6,12.85-3.58-3.59,2.76-14.73,9.51-4.96,8.57,4.96,5.6,9.95-2.91,4.78Z"/>
      <path class="cls-1" d="M188.87,243.02v-36.16l-6.77-36.46-22.01-9.08-15.06-15.52-4.36-22.65,4.69-37.16,10.72-33.83-14.73-32.82L99.82,0h-40.18l17.41,45.46,35.49,30.14,9.38,34.15-3.4,28.8-19.39,14.82-34.21,11.2-21.36,31.76-.31,3.09-15.23,2.37-7.84,11.06,3.43,16.1,13.29,11.56-12,19.07-21.55,18.57-3.36,38.3,38.54,24.34,72.08,6.21,65.64-12.71,22-41.72-9.4-49.56ZM106.9,218.1l8.96-2.65,7.83,6.82,4.66,12.82-4.24,4.37-12.48-14.28-13.4,8.45-5.35-4.6,14.02-10.93ZM148.49,267.13l-11.39,14.73h-26.12l-17.08-13.06,3.68-13.06h10.05l12.72,6.7h16.74l11.39-3.35v8.04ZM165.86,239.67l-6.23-10.82-5.93-1.95-9.95,9.82-6.1-.2,11.11-15.6,12.06-2.68,5.04,8.6,3.71,7.47-3.71,5.36Z"/>
    </g>
  </g>
</svg>