<?xml version="1.0" encoding="UTF-8"?>
<svg id="Ebene_2" data-name="Ebene 2" xmlns="http://www.w3.org/2000/svg" viewBox="0 0 354.9 348.88">
  <defs>
    <style>
      .cls-1 {
        fill: #3f2c20;
        stroke-width: 0px;
      }
    </style>
  </defs>
  <g id="_1" data-name="1">
    <g>
      <polygon class="cls-1" points="0 162.65 17.88 198.02 49 214.3 81.44 198.02 84.75 161.99 72.83 124.25 34.43 105.05 0 114.98 0 162.65"/>
      <polygon class="cls-1" points="260.21 168.47 260.21 132.86 274.12 105.05 325.76 79.89 354.9 124.18 350.26 168.47 292.66 196.42 260.21 168.47"/>
      <polygon class="cls-1" points="104.61 124.25 72.83 85.18 72.83 36.28 110.57 0 146.99 27.54 156.92 95.12 104.61 124.25"/>
      <polygon class="cls-1" points="181.42 97.1 213.2 105.05 231.74 124.25 260.21 95.12 269.48 48.33 241.67 0 203.27 0 177.24 47.01 181.42 97.1"/>
      <path class="cls-1" d="M301.23,267.4l-23.72-38.92-28.58-35.4-17.63-24.41-6.08-22.29-26.15-20.68-49.86-3.65-29.19,20.68-7.3,43.78-13.99,33.69-26.76,15.26-15.81,41.05-3.65,32.23,26.15,31.01,49.26,9.12,40.13-17.63,28.58-1.82,37.09,19.46h41.96l26.76-15.2,9.12-31.62-10.34-34.66ZM201.99,283.65l-23.05,17.87-43.76-49.01-7.53-25.62,13.06-25.11,27.63,7.03,11.55,22.1,9.54-17.58,21.6-7.92,18.08,11.44,3.52,31.39-30.64,35.41Z"/>
    </g>
  </g>
</svg>