<?xml version="1.0" encoding="UTF-8"?>
<svg id="Ebene_2" data-name="Ebene 2" xmlns="http://www.w3.org/2000/svg" viewBox="0 0 353.79 340.28">
  <defs>
    <style>
      .cls-1 {
        fill: #3f2c20;
        stroke-width: 0px;
      }
    </style>
  </defs>
  <g id="_1" data-name="1">
    <g>
      <polygon class="cls-1" points="307.41 12 196.97 71.9 146.81 108.04 117.91 105.37 88.66 106.64 69.19 125.73 58.78 163.05 65.02 202.65 75.05 191.4 94.88 180.97 121.67 187.26 158.64 169.29 170.02 137.53 225.03 101.84 324.33 27.98 330.09 14.1 321.36 6.33 307.41 12"/>
      <path class="cls-1" d="M353.79,186.76l-14.69-51.27-41.6-11.58h-62.94l-12.98-10.28-44.93,29.15-10.48,29.22-1.1,3.07-2.93,1.43-36.96,17.96-2.56,1.24-2.77-.65-23.88-5.61-15.91,8.37-9.07,10.17-11.24,12.61-2.63-16.69-6.24-39.6-.27-1.72.47-1.68,10.41-37.32.58-2.06,1.53-1.5,19.47-19.08,2.19-2.15,3.06-.13,29.26-1.27.54-.02.54.05,25.91,2.39,44.1-31.77-4.4-10.74v-30.19L147.87,0l-79.74,18.58L17.81,61.16,0,114.58l7.74,108.39,59.61,80.49,113.38,36.82,121.97-23.63s45.68-51.87,43.35-54.97c-2.32-3.1,7.72-74.92,7.72-74.92ZM98.9,279.31l-23.87-16.16,3.5-33.18,24-9.66,26.31,12.47,4.22,34.68-34.16,11.85ZM213.68,305.62l-32.87-18.44-3.92-29.79,28.29-20.23,24.13,12.03,8.48,29.14-24.12,27.28ZM300.43,236.86l-28.44-8.27-7.05-33.55,20.42-17.02,29.66,3.89,15.07,32.58-29.66,22.37Z"/>
    </g>
  </g>
</svg>