<?xml version="1.0" encoding="UTF-8"?>
<svg id="Ebene_2" data-name="Ebene 2" xmlns="http://www.w3.org/2000/svg" viewBox="0 0 500 499.53">
  <defs>
    <style>
      .cls-1 {
        stroke: #a86e4e;
      }

      .cls-1, .cls-2, .cls-3, .cls-4 {
        fill: none;
        stroke-miterlimit: 10;
        stroke-width: 3.4px;
      }

      .cls-2 {
        stroke: #b77c55;
      }

      .cls-5 {
        fill: #cc9b6e;
      }

      .cls-5, .cls-6, .cls-7, .cls-8, .cls-9, .cls-10, .cls-11, .cls-12, .cls-13 {
        stroke-width: 0px;
      }

      .cls-3 {
        stroke: #996142;
      }

      .cls-6 {
        fill: #c5925a;
      }

      .cls-7 {
        fill: #aa7a4f;
      }

      .cls-8 {
        fill: #af8051;
      }

      .cls-9 {
        fill: #c69866;
      }

      .cls-10 {
        fill: #7a5235;
      }

      .cls-11 {
        fill: #b2835b;
      }

      .cls-4 {
        stroke: #af7351;
      }

      .cls-12 {
        fill: #a0704d;
      }

      .cls-13 {
        fill: #dfb37c;
      }
    </style>
  </defs>
  <g id="_1" data-name="1">
    <g>
      <polygon class="cls-6" points="12.84 70.7 8.32 365.06 8.32 415.6 12.84 470.9 19.95 483.16 36.69 493.46 359.58 490.34 429.33 490.46 469.55 493.46 484.99 468.07 486.91 363.33 493.52 139.81 487.97 19.13 469.55 8.97 129.24 13.58 49.69 13.58 24.68 19.29 12.84 70.7"/>
      <polygon class="cls-13" points="24.56 478.5 29.44 453.88 21.74 404.52 26.7 363.33 29.1 75.1 37.68 31.29 12.84 6.94 0 62.54 0 401.25 3.43 469.19 12.71 490.48 24.56 478.5"/>
      <polygon class="cls-8" points="12.71 490.48 31.96 499.53 131.92 496.31 364.82 496.1 432.27 495.71 477.81 499.53 483.66 490.48 475.95 473.09 458.25 479.48 411.83 477.87 364.82 474.82 131.92 474.82 51.97 477.74 32.39 473.67 12.71 490.48"/>
      <polygon class="cls-7" points="475.95 473.09 471.77 454.75 474.64 363.33 474.64 139.81 472.9 43.89 475.95 20.35 480.15 0 500 21.02 493.52 139.81 495.44 363.33 494.06 474.42 483.66 490.48 475.95 473.09"/>
      <polygon class="cls-9" points="12.84 6.94 43.21 0 131.92 5.84 364.82 5.84 480.15 0 475.95 20.35 451.55 22.27 364.82 27.14 131.92 27.14 59.69 23.58 37.68 31.29 12.84 6.94"/>
      <polygon class="cls-12" points="471.12 455.93 458.25 479.48 477.58 497.47 492.82 473.09 482.4 468.76 471.12 455.93"/>
      <polygon class="cls-5" points="10.48 480.85 29.44 453.88 32.39 473.67 48.41 480.85 21.98 493.46 14.1 489.08 10.48 480.85"/>
      <polygon class="cls-11" points="480.15 0 472.75 16.6 451.55 22.27 472.9 43.89 486.04 26.92 500 21.02 480.15 0"/>
      <polyline class="cls-2" points="51.97 477.74 32.39 473.67 29.44 453.88 21.74 404.52 26.7 363.33 26.7 139.81 29.1 75.1 37.68 31.29 59.69 23.58"/>
      <line class="cls-4" x1="451.55" y1="22.27" x2="472.9" y2="43.89"/>
      <polyline class="cls-4" points="59.69 23.58 131.92 27.14 364.82 27.14 451.55 22.27"/>
      <line class="cls-2" x1="29.44" y1="452.66" x2="10.48" y2="480.85"/>
      <polyline class="cls-3" points="492.82 473.09 482.4 468.76 471.77 454.75"/>
      <polyline class="cls-4" points="479.59 1.7 472.75 16.6 451.55 22.27"/>
      <line class="cls-2" x1="37.68" y1="31.29" x2="14.8" y2="8.97"/>
      <line class="cls-2" x1="59.69" y1="23.58" x2="42.73" y2="2.32"/>
      <line class="cls-2" x1="29.1" y1="75.1" x2="2.83" y2="63.3"/>
      <polyline class="cls-3" points="497.64 21.9 486.04 26.92 472.9 43.89 474.64 139.81 474.64 363.33 471.77 454.75 458.25 479.48"/>
      <polyline class="cls-1" points="476.31 497.53 458.25 479.48 411.83 477.87 364.82 474.82 131.92 474.82 51.97 477.74 23.12 493.08"/>
      <path class="cls-10" d="M43.48,3.43l88.22,5.8h.22s232.91,0,232.91,0h.17s113.76-5.76,113.76-5.76l17.79,18.84-4.5,117.37v.13s0,223.48,0,223.48l-1.37,110.11-14.6,22.57-43.51-3.65h-.4s-67.39,2.35-67.39,2.35h-232.9s-99.17,1.44-99.17,1.44l-17.38-8.16-8.52-19.55-3.39-67.24V62.93L15.68,9.78l27.8-6.35M480.15,0l-115.32,5.84h-232.91L43.21,0,12.85,6.94,0,62.54v338.71l3.43,67.94,9.28,21.3,19.25,9.04,99.96-1.45h232.91l67.45-2.36,45.54,3.82,16.24-25.11,1.38-111.09v-223.52l4.56-118.79L480.15,0h0Z"/>
    </g>
  </g>
</svg>