<?xml version="1.0" encoding="UTF-8"?>
<svg id="Ebene_2" data-name="Ebene 2" xmlns="http://www.w3.org/2000/svg" viewBox="0 0 633.86 628.86">
  <defs>
    <style>
      .cls-1 {
        fill: #978d91;
      }

      .cls-1, .cls-2, .cls-3, .cls-4, .cls-5, .cls-6 {
        stroke-width: 0px;
      }

      .cls-2 {
        fill: #afa4a2;
      }

      .cls-3 {
        fill: #b6acac;
      }

      .cls-4 {
        fill: #877f85;
      }

      .cls-5 {
        fill: #756d6f;
      }

      .cls-6 {
        fill: #a5948f;
      }
    </style>
  </defs>
  <g id="_1" data-name="1">
    <g>
      <g>
        <polygon class="cls-2" points="41.06 627.86 1.03 622.73 4.07 542.43 4.07 86.34 2.43 44.16 1.04 5.48 36.76 1.13 84.53 5.37 565.76 5.36 622.52 1.07 629.35 44.8 626.56 86.61 626.56 550.38 632.77 624.78 589.31 624.1 544.56 627.86 41.06 627.86"/>
        <path class="cls-5" d="M621.67,2.13l6.67,42.71-2.78,41.7v463.84l6.12,73.38-42.35-.67-44.82,3.76H41.12l-39.06-5,3-79.39V86.34l-1.64-42.22L2.07,6.37,36.77,2.13l47.67,4.23h481.32l55.91-4.23M623.36,0l-1.84.14-55.84,4.23H84.53L36.95.14l-.21-.02-.21.03L1.83,4.38,0,4.6l.07,1.83,1.36,37.76,1.64,42.19v456.05L.07,621.78l-.07,1.83,1.81.23,39.06,5,.13.02h503.69s44.72-3.76,44.72-3.76l42.25.67,2.21.03-.18-2.2-6.11-73.3V86.61l2.78-41.64v-.22s-.02-.22-.02-.22l-6.67-42.71-.29-1.83h0Z"/>
      </g>
      <polygon class="cls-2" points="625.56 617.75 584.13 617.1 540.52 620.79 90.74 620.79 46.31 620.79 8.19 615.89 11.13 538.6 11.13 90.36 9.52 49.22 8.19 12.35 42.06 8.2 88.59 12.35 561.29 12.35 615.75 8.2 622.29 49.86 619.56 90.36 619.56 546.1 625.56 617.75"/>
      <polygon class="cls-3" points="2.07 6.37 8.19 12.35 11.13 90.36 11.13 538.6 8.19 615.89 2.07 621.86 5.07 542.47 5.07 86.34 2.07 6.37"/>
      <polygon class="cls-6" points="8.19 12.35 42.06 8.2 88.59 12.35 561.29 12.35 615.75 8.2 621.67 2.13 565.76 6.37 84.44 6.37 36.77 2.13 2.07 6.37 8.19 12.35"/>
      <polygon class="cls-4" points="621.67 2.13 615.75 8.2 622.29 49.86 619.56 90.36 619.56 546.1 625.56 617.75 631.68 623.76 625.56 550.38 625.56 86.55 628.34 44.84 621.67 2.13"/>
      <polygon class="cls-1" points="625.56 617.75 584.13 617.1 540.52 620.79 90.74 620.79 46.31 620.79 8.19 615.89 2.07 621.86 41.13 626.86 86.68 626.86 544.52 626.86 589.33 623.1 631.68 623.76 625.56 617.75"/>
    </g>
  </g>
</svg>