<?xml version="1.0" encoding="UTF-8"?>
<svg id="Ebene_2" data-name="Ebene 2" xmlns="http://www.w3.org/2000/svg" viewBox="0 0 633.81 628.83">
  <defs>
    <style>
      .cls-1 {
        fill: #978d91;
      }

      .cls-1, .cls-2, .cls-3, .cls-4, .cls-5, .cls-6 {
        stroke-width: 0px;
      }

      .cls-2 {
        fill: #afa4a2;
      }

      .cls-3 {
        fill: #b6acac;
      }

      .cls-4 {
        fill: #877f85;
      }

      .cls-5 {
        fill: #756d6f;
      }

      .cls-6 {
        fill: #a5948f;
      }
    </style>
  </defs>
  <g id="_1" data-name="1">
    <g>
      <path class="cls-5" d="M621.66,2.1l6.67,54.03-2.78,62.04v416.86l6.12,88.71-47.36-.67-61.91,3.76H50.05l-48-5,3-108.15V107.69l-1.64-55.48L2.05,6.33,44.72,2.1l58.69,4.23h443.55l74.7-4.23M623.42,0l-1.87.11-74.65,4.23H103.49L44.86.11h-.17s-.17,0-.17,0L1.86,4.34l-1.86.18.06,1.87,1.36,45.87,1.64,55.45v405.94L.06,621.77l-.05,1.85,1.84.19,48,5h.1s.1.01.1.01h472.47s61.83-3.76,61.83-3.76l47.28.67,2.17.03-.15-2.17-6.11-88.64V118.21l2.78-62v-.17s-.01-.17-.01-.17l-6.67-54.03-.23-1.86h0Z"/>
      <polygon class="cls-2" points="625.55 617.72 579.11 617.07 518.41 620.76 112.14 620.76 55.24 620.76 8.17 615.85 11.11 509.81 11.11 111.71 9.5 57.3 8.17 12.32 50.01 8.17 107.56 12.32 542.49 12.32 615.74 8.17 622.28 61.15 619.55 121.98 619.55 530.74 625.55 617.72"/>
      <polygon class="cls-3" points="2.05 6.33 8.17 12.32 11.11 111.71 11.11 509.81 8.17 615.85 2.05 621.83 5.05 513.68 5.05 107.69 2.05 6.33"/>
      <polygon class="cls-6" points="8.17 12.32 50.01 8.17 107.56 12.32 542.49 12.32 615.74 8.17 621.66 2.1 546.96 6.33 103.41 6.33 44.72 2.1 2.05 6.33 8.17 12.32"/>
      <polygon class="cls-4" points="621.66 2.1 615.74 8.17 622.28 61.15 619.55 121.98 619.55 530.74 625.55 617.72 631.67 623.73 625.55 535.02 625.55 118.17 628.33 56.13 621.66 2.1"/>
      <polygon class="cls-1" points="625.55 617.72 579.11 617.07 518.41 620.76 112.14 620.76 55.24 620.76 8.17 615.85 2.05 621.83 50.05 626.83 108.08 626.83 522.4 626.83 584.31 623.07 631.67 623.73 625.55 617.72"/>
    </g>
  </g>
</svg>