<?xml version="1.0" encoding="UTF-8"?>
<svg id="Ebene_2" data-name="Ebene 2" xmlns="http://www.w3.org/2000/svg" viewBox="0 0 304.11 283.63">
  <defs>
    <style>
      .cls-1 {
        fill: #3f2c20;
        stroke-width: 0px;
      }
    </style>
  </defs>
  <g id="_1" data-name="1">
    <g>
      <polygon class="cls-1" points="179.21 197.7 202.42 167.89 221.29 107.09 250.06 75.34 231.65 63.61 211.12 61.04 205.99 46.74 219.64 32.58 246.86 29.08 271.99 51.31 267.24 69.16 251.16 89.12 232.89 117.35 248.52 113.09 266.44 120.58 272.06 139.57 268.27 150.96 253.6 152.95 251.19 138.5 241.38 127.36 231.06 130.94 216.72 184.73 207.4 203.85 179.21 197.7"/>
      <polygon class="cls-1" points="118.75 187.4 129 144.77 121.08 81.61 134.17 40.8 106.65 51.24 90.33 37.58 82.36 38.9 88.81 14.42 112.16 0 144.23 9.87 147.27 28.09 140.87 52.91 135.88 86.16 148.4 70.03 166.81 68.13 185.03 86.16 187.88 103.24 163.59 104.95 147.91 92.13 140.43 102.96 148.97 154.2 148.14 183.78 118.75 187.4"/>
      <polygon class="cls-1" points="106.96 239.67 85.69 208.45 70.7 146.58 44 113.07 69.35 113.08 85.21 100.91 85.21 83.06 71.08 75.13 47.29 71.17 27.22 90.99 27.24 105.82 42.02 126.76 58.48 156.09 42.93 151.08 27.59 155.57 23.93 173.24 32.93 191.03 49.51 183.47 51.99 167.23 60.17 173.41 70.35 224.35 78.45 244.02 106.96 239.67"/>
      <polygon class="cls-1" points="30.17 229.65 55.01 203.62 107.06 183.51 163.25 179.37 198.15 188.77 238.96 204.51 261.44 229.65 266.76 223.14 276.22 222.55 285.1 232.01 293.26 246.78 304.11 253.35 304.11 261.45 285.83 266.2 259.26 271.92 199.56 283.63 131.57 275.34 67.58 282.2 27.21 272.23 0 265.73 5.91 249.16 5.32 236.74 20.02 223.73 30.17 229.65"/>
    </g>
  </g>
</svg>