<?xml version="1.0" encoding="UTF-8"?>
<svg id="Ebene_2" data-name="Ebene 2" xmlns="http://www.w3.org/2000/svg" viewBox="0 0 330.78 327.5">
  <defs>
    <style>
      .cls-1 {
        fill: #3f2c20;
        stroke-width: 0px;
      }
    </style>
  </defs>
  <g id="_1" data-name="1">
    <polygon class="cls-1" points="302.45 203.07 290.83 213.19 265.53 216.06 265.08 212.09 264.63 208.11 287.46 205.52 330.78 167.79 308.45 88.25 236.09 88.25 204.17 132.77 233.22 161.15 242.19 201.39 244.93 213.67 235.91 276.7 208.03 283.68 207.06 279.8 206.09 275.92 228.75 270.24 236.8 213.98 225.92 165.21 172.05 112.56 82.84 137.99 74.29 219.25 91.19 263.43 87.45 264.86 83.72 266.29 67.92 225 66.13 220.31 75.45 131.78 173.14 103.93 169.33 49.29 93.09 0 19.33 73.76 41.24 237.38 41.41 238.61 33.48 239.67 30.07 214.23 0 250.91 20.14 295.77 106.32 327.5 260.86 319.39 324.83 275.69 316.72 216.46 302.45 203.07"/>
  </g>
</svg>