<?xml version="1.0" encoding="UTF-8"?>
<svg id="Ebene_2" data-name="Ebene 2" xmlns="http://www.w3.org/2000/svg" viewBox="0 0 242.44 295.06">
  <defs>
    <style>
      .cls-1 {
        fill: #3f2c20;
        stroke-width: 0px;
      }
    </style>
  </defs>
  <g id="_1" data-name="1">
    <g>
      <polygon class="cls-1" points="225.84 59.38 226.09 50.85 216.41 29.66 201.15 26.63 184.93 7.26 127.43 0 102.01 10.29 83.24 4.24 39.96 10.29 34.82 31.48 21.5 36.92 20.9 52.06 14.84 56.9 3.34 84.74 7.58 95.64 13.03 111.38 31.79 128.32 40.87 143.46 64.55 139.44 67.33 146.86 79.48 152.94 91.2 146.86 92.58 140.26 98.38 141.3 102.05 152.94 114.2 155.54 126.79 149.46 129.76 138.31 133.01 137.45 134.6 149.9 147.62 155.54 153.7 149.03 162.66 156.22 175.16 150.9 179.74 141.62 178.53 134.63 198.25 143.46 233.36 126.51 234.57 102.3 242.44 86.56 242.44 61.74 225.84 59.38"/>
      <polygon class="cls-1" points="238.89 274.96 196.4 259.86 177.89 251.45 165.06 252.19 166.58 247.12 170.63 237.27 163.15 241.15 158.61 247.96 157.67 252.62 154.73 252.79 152.46 247.69 152.73 238.61 158.61 224.98 147.12 236.47 140.52 253.62 134.46 253.97 120.07 262.33 115.27 248.88 107.8 230.84 96.47 220.02 103.93 237.65 105.95 254.29 104.56 263.88 102.8 267.23 102.28 248.96 88.1 225.95 92.26 239.49 88.77 249.35 82.73 226.11 67.76 213.98 75.57 226.31 79.84 241.67 73.32 259.54 72.69 237.31 62.33 215.96 47.45 207.24 58.86 220.93 63.09 242.76 60.1 264.79 51.25 233.95 48.75 252.92 42.4 224.45 28.72 213.26 35.94 231.34 36.49 250.83 29.13 227.63 12.79 210.66 23.88 235.95 30.31 269.3 21.14 246.75 4.98 235.88 14.14 258.08 14.54 272.18 0 284.36 8.47 292.25 46.31 295.06 92.62 293.65 114.93 288.85 115.47 288.62 144.4 292.25 191.77 289.73 242.44 286.78 238.89 274.96"/>
      <polygon class="cls-1" points="131.42 157.24 130.19 156.71 120.3 161.48 120.3 273.3 130.26 284.36 139.38 284.36 144.4 277.6 140.13 161.01 131.42 157.24"/>
    </g>
  </g>
</svg>