<?xml version="1.0" encoding="UTF-8"?>
<svg id="Ebene_2" data-name="Ebene 2" xmlns="http://www.w3.org/2000/svg" viewBox="0 0 400.35 303.94">
  <defs>
    <style>
      .cls-1 {
        fill: #3f2c20;
        stroke-width: 0px;
      }
    </style>
  </defs>
  <g id="_1" data-name="1">
    <g>
      <path class="cls-1" d="M240.64,202.4l-39.43-52.39-9.22-110.75,16.21-20.48V5.97l-13.65-5.97h-72.53l-6.83,5.97,2.56,9.39,17.07,25.6-14.83,105.19-67.1,19.55-40.11,35.84L0,253.69l14.82,28.07,57.17,22.19h143.9l31.57-14.51,6.83-45.23-13.65-41.81ZM63.94,255.64l-10.75,6.72h-12.43l-10.75-6.72-1.68-15.12,5.71-25.37,6.72-10.75h14.78l10.08,8.4,6.38,14.61-8.06,28.22Z"/>
      <polygon class="cls-1" points="295.39 150.6 263.72 146.15 219.75 147.46 213.02 150.29 238.91 185.28 247.73 184.58 259.01 184.1 299.06 181.22 305.6 166.04 295.39 150.6"/>
      <polygon class="cls-1" points="383.71 197.93 305.26 189.61 243.85 192.75 247.32 197.98 247.91 198.88 248.25 199.91 261.9 241.73 262.49 243.53 262.21 245.4 255.38 290.63 254.74 294.9 250.81 296.71 247.88 298.05 258.9 299.76 356.76 296.98 380.14 287.47 400.35 224.87 383.71 197.93"/>
    </g>
  </g>
</svg>