<?xml version="1.0" encoding="UTF-8"?>
<svg id="Ebene_2" data-name="Ebene 2" xmlns="http://www.w3.org/2000/svg" viewBox="0 0 287.12 266.1">
  <defs>
    <style>
      .cls-1 {
        fill: #3f2c20;
        stroke-width: 0px;
      }
    </style>
  </defs>
  <g id="_1" data-name="1">
    <g>
      <polygon class="cls-1" points="53.14 230.87 19.44 142.04 53.14 50.14 143.5 16.45 241.52 53.21 275.22 151.4 241.52 237 147.33 266.1 53.14 230.87"/>
      <polygon class="cls-1" points="46.54 90.46 19.44 84.5 5.97 65.4 5.97 54.66 0 45.12 19.44 45.12 40.57 45.12 59.67 55.86 46.54 90.46"/>
      <polygon class="cls-1" points="38.4 51.14 32.82 32.08 35.61 13.95 35.61 4.18 55.14 19.06 77.45 23.25 83.49 43.24 58.16 59.84 38.4 51.14"/>
      <polygon class="cls-1" points="199.72 49.74 199.72 21.39 215.53 8.83 229.47 0 233.19 20.92 242.03 35.33 241.52 53.21 233.19 63.23 199.72 49.74"/>
      <polygon class="cls-1" points="229.47 52.07 249.93 35.8 266.2 35.8 277.36 43.93 287.12 43.93 279.68 52.07 273.18 71.6 268.99 83.22 245.28 83.22 229.47 52.07"/>
    </g>
  </g>
</svg>