<?xml version="1.0" encoding="UTF-8"?>
<svg id="Ebene_2" data-name="Ebene 2" xmlns="http://www.w3.org/2000/svg" viewBox="0 0 331.18 255.36">
  <defs>
    <style>
      .cls-1 {
        fill: #3f2c20;
        stroke-width: 0px;
      }
    </style>
  </defs>
  <g id="_1" data-name="1">
    <polygon class="cls-1" points="305.89 26.35 248.85 0 198.61 1.86 180.83 8.9 204.55 17.56 251.83 47.64 268.12 80.9 260.96 87.61 250.35 71.24 223.12 42.74 166.4 14.6 105.89 38.54 98.31 45.17 131.89 60.91 183.92 101.17 206.09 150.65 191.54 150.65 175.34 117.3 137.56 82.75 85.09 56.72 34.86 100.64 66.06 115.28 105.25 145.82 120.86 177.49 108.99 177.97 92.35 156.22 51.64 125.23 23.16 110.87 18.13 115.27 1.4 146.52 0 186.99 49.77 244.2 129.31 255.36 255.83 199.08 320.94 127.45 331.18 80.93 305.89 26.35"/>
  </g>
</svg>