<?xml version="1.0" encoding="UTF-8"?>
<svg id="Ebene_2" data-name="Ebene 2" xmlns="http://www.w3.org/2000/svg" viewBox="0 0 362.15 322.41">
  <defs>
    <style>
      .cls-1 {
        fill: #3f2c20;
        stroke-width: 0px;
      }
    </style>
  </defs>
  <g id="_1" data-name="1">
    <path class="cls-1" d="M352.15,199.1l-14.23-19.18,10.02-6.69,8.9-14.52-7.96-18.26-16.39-13.68-20.59,2.13-1.89-14.93-13.59-30.68-23.88-16.25-42.15-15.45-4.68-9.2-15.18-13.66-28.95-6.82-29.57,6.56-1.71,2.58V8.33l-6.39-1.31-14.63-3-9.61-1.97v57.74l-7.84,3.12V13.54l-6.59-1.18-10.51-1.88-7.77-1.39-1.49,7.75-1.88,9.76-.14.75v48.27l-8.39,5.7.54-20.91v-.1s0-.1,0-.1V0l-9.39,1.66-15.01,2.65-6.61,1.17v115.29l-2.01,5.25-17.91-3.06-21.68,8.99-2.48,24.22,7.3,17.91,12,3.99L0,217.5l5.84,54.32,33.25,37.46,92.02,13.11,118.95-4.03,65.26-17.98,37.47-34.65,9.37-30.44-10-36.2ZM127.67,11.86l14.63,3v102.81l-5.35,4.13-9.28-3.38v-61.81h0s0-44.75,0-44.75ZM91.45,71.02V28.12l1.88-9.76,10.51,1.88v106.18h-7.5l-4.88-3.75v-51.66ZM52.6,133V12.18l15.01-2.65v50.67l-.69,26.66-1.18,45.38-4.5,3-8.63-2.25ZM74.34,177.66l-10.88-15.1,6.73-3.04,22.76,19.93,34.95,4.72,27.19-9.88,17.88-10.65,5.72,4.94-17.78,12.34-36.46,12.45h-30.53l-19.56-15.73ZM251.18,253.4l-32.68-11.14-31.69.58-28.9,1.05-31.5,7.53-3.47-8.58,36.64-8.19,36.64-3.53,31.69,3.53,29.21,11.32-5.94,7.43ZM304.96,189.24l-29.05,8.89-45.65-4.74-19.56-16.93,5.93-6.23,16.6,13.95,32.61,3.28,24.9-5.93,18.97-11.31,5.81,6.23-10.55,12.78Z"/>
  </g>
</svg>