<?xml version="1.0" encoding="UTF-8"?>
<svg id="Ebene_2" data-name="Ebene 2" xmlns="http://www.w3.org/2000/svg" viewBox="0 0 351.63 347.55">
  <defs>
    <style>
      .cls-1 {
        fill: #3f2c20;
        stroke-width: 0px;
      }
    </style>
  </defs>
  <g id="_1" data-name="1">
    <path class="cls-1" d="M337.02,183.51l6.18-7.51,4.98-14.25-6.94-16.66-14.18-9.82-15.67,2.19-1.02-8.05,7.9-8.76,2.33-2.59-.31-3.47-.96-10.84-.64-7.22-7.25-.07-14.35-.13-4.54-9.58-26.05-27.84-7.44-3.23-.44-1.04-1.04.39-26.95-11.7-4.49-18.25-12.55-19.08-28.19-5.99-33.9,5.03-11.06,18.73-11.24,20.61-41.4,12.3-34.19,33.25-2,7.75-12.39.69-3.72.21-2.24,2.98-4.66,6.21-5,6.67,6.88,4.72,13.24,9.08-1.63,6.33-17.91-3.06-21.68,8.99-2.48,24.22,7.3,17.91,12,3.99-8.82,39.45,1.15,49.04,32.81,36.97,56.92,24.16,86.19,11.31,61.99-10.61,55.26-27.98,37.46-34.65,9.37-30.44v-36.2l-14.62-24.15ZM192.64,114.18l42.51-5.41,11.28-40.99,7.84-2.96,16.83,39.26,29.78.28,10.47.1.96,10.84-20.24,22.46,7.62,39.48-4.81,8.1-33.62-27.42-36.73,24.12-12.34,1.47,7.65-40.94h0s-29.62-15.55-29.62-15.55l2.41-12.84ZM34.99,112.56l4.66-6.21,46.63-2.6,26.25-38.01h5.93l13.54,38.76,33.86-.68,4.91,5.18-28.18,31.38,6.77,42.65-3.64,4.99-35.53-27.07h0l-40.43,16.99-6.1-5.44,6.11-36.07-23.94-16.42h0s-10.84-7.44-10.84-7.44ZM295.37,255.45l-35.76,42.26-62.9,22.9-68.76-8.82-40.09-30.88-24.38-52.55,5.42-29.8,14.63,2.73,66.3,8.17h70.77l56.34-8.17,18.24-5.39.77.63,9.7,11.25-10.29,47.66Z"/>
  </g>
</svg>