<?xml version="1.0" encoding="UTF-8"?>
<svg id="Ebene_2" data-name="Ebene 2" xmlns="http://www.w3.org/2000/svg" viewBox="0 0 364.1 338.31">
  <defs>
    <style>
      .cls-1 {
        fill: #3f2c20;
        stroke-width: 0px;
      }
    </style>
  </defs>
  <g id="_1" data-name="1">
    <g>
      <polygon class="cls-1" points="0 123.7 178.29 0 194.99 0 353.67 123.35 333.17 151.57 179.8 223.08 147.16 214.53 6.66 136.77 0 123.7"/>
      <g>
        <polygon class="cls-1" points="179.8 223.08 290.83 171.31 290.83 171.31 179.8 223.08 147.16 214.53 78.35 176.45 147.16 214.53 179.8 223.08"/>
        <polygon class="cls-1" points="183.19 230.33 180.57 231.55 177.78 230.82 145.13 222.27 144.16 222.02 143.28 221.53 41.92 165.43 33.72 258.12 38.52 272.23 90.19 318.55 152.88 338.31 217.26 332.1 270.35 315.83 302.54 284.17 309.32 263.76 292.45 179.38 183.19 230.33"/>
      </g>
      <g>
        <polygon class="cls-1" points="341.06 140.71 341.06 140.71 342.02 139.39 341.06 140.71"/>
        <polygon class="cls-1" points="345.58 148.09 352.09 158.72 353.67 219.15 343.21 277.32 328.52 297.65 335.3 310.64 353.67 310.64 364.1 303.68 353.67 280.08 364.1 222.82 364.1 155.89 352.85 138.08 345.58 148.09"/>
      </g>
    </g>
  </g>
</svg>