<?xml version="1.0" encoding="UTF-8"?>
<svg id="Ebene_2" data-name="Ebene 2" xmlns="http://www.w3.org/2000/svg" viewBox="0 0 364.65 323.03">
  <defs>
    <style>
      .cls-1 {
        fill: #3f2c20;
        stroke-width: 0px;
      }
    </style>
  </defs>
  <g id="_1" data-name="1">
    <g>
      <polygon class="cls-1" points="356.73 270.16 325.08 225.98 343.31 188.39 350.14 150.81 333.4 125.93 303.48 169.23 311.96 172.48 315.81 188.44 308.04 190.32 307.36 187.53 305.17 178.45 296.11 174.98 270.51 168.93 266.87 153.91 247.82 145.24 228.62 145.8 228.6 145.82 212.43 141.27 208.49 135.06 199.93 137.92 197.14 142.73 196.85 143.22 189.94 139.2 194.53 131.29 211.89 125.5 217.55 134.4 225.37 136.6 266.35 79.42 265.74 78.28 243.32 70.37 253.21 55.37 247.93 40.95 223.53 35.4 197.82 52.4 183.46 90.1 164.85 120.48 137.15 115.21 137.15 98.25 125.94 73.36 101.57 73.36 97.95 45.16 87.69 24.64 97.13 29.15 118.07 30.38 127.51 27.92 137.78 32.03 130.39 9.24 111.09 0 90.15 6.57 81.12 17.24 60.18 12.73 41.7 12.73 24.72 24.64 15.42 42.7 29.79 46.81 53.2 44.34 66.34 32.03 78.65 22.88 90.97 47.63 94.59 73.7 67.92 82.49 63.3 121.8 73.25 165.86 33.24 137.99 0 179.22 0 186.03 41.18 217.11 15.17 229.76 15.17 262.04 0 300.5 50.77 309.07 63.3 298.52 86.38 314.34 144.41 309.73 183.46 318.96 249.25 323.03 286.84 307.75 350.14 316.32 364.65 303.35 356.73 270.16"/>
      <polygon class="cls-1" points="249.44 137.19 273.72 148.24 277.13 162.27 295.55 166.63 362.17 70.23 316.3 34.06 308.7 34.06 234.48 137.63 249.44 137.19"/>
    </g>
  </g>
</svg>