<?xml version="1.0" encoding="UTF-8"?>
<svg id="Ebene_2" data-name="Ebene 2" xmlns="http://www.w3.org/2000/svg" viewBox="0 0 333.28 370.09">
  <defs>
    <style>
      .cls-1 {
        fill: #3f2c20;
        stroke-width: 0px;
      }
    </style>
  </defs>
  <g id="_1" data-name="1">
    <g>
      <polygon class="cls-1" points="303.25 319.32 280.2 337.77 279.72 338.16 279.18 338.48 257.72 351.4 288.25 354.79 307.3 350.12 314.33 335.09 305.44 320.27 303.25 319.32"/>
      <g>
        <polygon class="cls-1" points="136.86 182.54 197.26 182.54 216.93 174.08 216.93 174.08 197.26 182.54 136.86 182.54 88.53 179.84 67.56 171.41 67.56 171.41 88.53 179.84 136.86 182.54"/>
        <path class="cls-1" d="M281.34,258.28l1.98,10.14,26.93,6.37,19.62-6.85,3.4-21.57-10.13-22.29-29.37-16.11-55.44-18.59h0s-6.47-6.09-6.47-6.09l-5.69-3.51-25.41,10.93-1.68.72h-62.73s-48.32-2.72-48.32-2.72l-1.46-.08-1.36-.54-28.85-11.59-24.68,11.22-27.25,46.85-3.48,50.91,11.58,36.65,23.6,24.4,35.03,8.25,30.7,8.13,26.95,7.18,26.71-6.87,2.75-9.74-12.88-11.2-19.08-1.88-11.31,1.97-7.53-.88-1.42-4.46,19.26-6.14,23.98,2.36,19.62,17.06-1.15,4.06,74.11-4.37,32.48-19.54,31.61-25.3,10.62-22.67-5.83,2.03-35.46-8.38-3.99-20.39,9.16-11.16,9.32-7.03.65-.49,2.82,3.73h0s2.82,3.74,2.82,3.74l-9.07,6.85-5.65,6.89ZM185.6,291.49l-43.21,4.68-54.15-11.22-32.89-16.43,4.18-8.38.45.23,31.35,15.65,51.51,10.67,38.46-4.16,10.71-10.71-2.76-16.71-8.7-5.49-31.48,1.5-37.55-4.73-32.68-13.9,1.83-4.31,1.83-4.31,31.48,13.39,35.45,4.46,33.62-1.6,14.75,9.31,4.24,25.6-16.45,16.44ZM271.38,296.98l6.76,3.25,1.31,4.02-10.73,2.46-7.15-2.55v-5.86l9.82-1.33Z"/>
      </g>
      <path class="cls-1" d="M239.17,123.55l-15.73-11.15-2.48-1.68,1.79-.8,2.59-7.54-2.33-5.78-7.25-5.91-9.02,1.02-4.73-30.21-15.74-15.8-22.23-7.72-11.57-8.03-8.33-6.88-1.95-.66-4.71-11.84L118.1,0l-57.78,5.22-41.96,31.29L0,70.23l4.85,45.98,10.97,35.73,9.47,11.18,8.94-18.84,3.84-63.27,13.62-40.33,23.12-22.29,35.14-2.74,10.76,8.98-3.4,2.2-7.37,11.9-17.08,5.88-20.22,12.99-7.91,30.08.6,7.48-10.13.85-3.53,7.58v7.82l7.6,7.25-6.99,5.7-7.32,19.11,6.96,21.68,36.61,14.7,48.32,2.71h60.4l26.79-11.53,18.84-24.62-3.72-22.85ZM125.84,125.78l-17.56-2.81-15.81-6.32,2.46-1.05,15.4,4.22h16.22l13-2.11,7.38-4.57,1.21,2.22-7.54,7.27-14.75,3.16ZM169.42,141.86l-9.18,1.69-12.04-1.93-7.77-2.9v-1.69l15.22,2.9,11.54-1.45,6.1-4.59,2.66,1.21-6.52,6.77ZM199.6,118.77l-9.78,4.85-15.73-1.73-9.75-4.98,1.15-3.22,11.52,4.76h12.85l9.31-3.7,5.1-4.5,2.44,1.32-7.11,7.19Z"/>
    </g>
  </g>
</svg>