<?xml version="1.0" encoding="UTF-8"?>
<svg id="Ebene_2" data-name="Ebene 2" xmlns="http://www.w3.org/2000/svg" viewBox="0 0 369.05 357.37">
  <defs>
    <style>
      .cls-1 {
        fill: #3f2c20;
        stroke-width: 0px;
      }
    </style>
  </defs>
  <g id="_1" data-name="1">
    <g>
      <path class="cls-1" d="M242.73,124.27l15.13-43.6-19.73-46.82-31.57-15.79-48.68,20.91L109.2,0l-61.18,17.41-12.5,48.02L0,89.77v42.76l32.89,33.67-1.32,43.73,21.27,37.72h64.24l28.94-30.28,65.12,19.1,25.65-22.37,28.72-47.9-22.8-41.92ZM193.96,166.88l-59.77,27.69-39.69-9.21-33.62-36.25v-52.3l16.34-27.09,50.43-16.64,42.5,14.02,39.69,53.21-15.88,46.57Z"/>
      <polygon class="cls-1" points="80.27 101.06 102.3 69.11 141.59 65.1 151.21 144.47 172.69 144.47 174.46 167.32 103.9 174.54 101.9 150.49 123.95 144.07 120.74 94.77 114.33 95.17 99.5 111.09 80.27 101.06"/>
      <g>
        <polygon class="cls-1" points="256.25 181.67 256.25 181.67 236.81 214.09 211.15 236.46 236.81 214.09 256.25 181.67"/>
        <polygon class="cls-1" points="362.88 246.78 263.08 185.84 243.67 218.21 243.02 219.29 242.07 220.12 216.41 242.49 213.11 245.37 208.9 244.14 161.15 230.13 226.67 357.1 267.93 357.37 285.1 332.78 321.42 327.84 332.52 303.6 369.05 287.84 362.88 246.78"/>
      </g>
    </g>
  </g>
</svg>