<?xml version="1.0" encoding="UTF-8"?>
<svg id="Ebene_2" data-name="Ebene 2" xmlns="http://www.w3.org/2000/svg" viewBox="0 0 351.63 349.37">
  <defs>
    <style>
      .cls-1 {
        fill: #3f2c20;
        stroke-width: 0px;
      }
    </style>
  </defs>
  <g id="_1" data-name="1">
    <path class="cls-1" d="M342.26,192.17l1.02-7.61,4.98-14.25-8.09-16.77-10.18-13.18-18.6-2.89-1.89-14.93-16.95-35.8-28.46-20.97-35.94-19.17-2.12-18.46-11.06-15.68L185.38,0l-33.9,5.03-11.06,18.73-11.24,20.61-41.4,12.3-34.19,33.25-11.53,44.65-17.91-3.06-21.68,8.99-2.48,24.22,7.3,17.91,12,3.99-8.82,39.45,5.84,54.32,33.25,37.46,30.17,4.88-.02.17-.73,4.89,4.04,2.84,17.92,12.58,1.65,1.16,2,.24,38.13,4.58,1.52.18,1.48-.39,24.52-6.48,3.44-.91,1.63-3.16,4.71-9.13,69.52-2.36,55.26-17.98,37.46-34.65,9.37-30.44v-36.2l-9.38-15.49ZM91.32,172.68l4.82-19.4,20.23-7.09,20.23,7.09,3.85,15.86-9.63,23.15h-25.04l-14.45-19.61ZM200.66,232.12l14.24,17.11-5.75,4.39-7.27-9.31-19.55-10.56-19.14-1.74-21.25,2.91,1.12-9.03,29.08-2.94,28.51,9.16ZM96.79,102.58l22.66,2.91,27.16,25.46,5.09,19.64-5.46,3.32-9.46-18.23-14.91-18.18-21.09-7.14-18.91,2.41-1.82-7.27,16.73-2.91ZM168.2,334.76l-24.52,6.48-38.13-4.58-17.92-12.58,3.81-25.55,9.92-21.98,1.54-24.68,2.27-11.85,9.53-1.74,11.06,17.13,6.1,17.57,10.17,5.34,42.83,1.14,33.56-5.72,18.68-2.53,8.39,8.25-5.26,10.3-29.44,10.3-24.79,4.19-9.15,13.73-5.99,11.62h0l-2.66,5.16ZM260.83,200.49l-28.89,3.94-12.52-16.46,3.85-18.73,13.48-3.75,21.67,3.08,10.59,15.59-8.19,16.33ZM291.17,183.69l-22.55-21.07-18.91-7.73h-22.91l2.91-7.6h29.46l20.73,13.82,17.46,21.05-6.18,1.53Z"/>
  </g>
</svg>