<?xml version="1.0" encoding="UTF-8"?>
<svg id="Ebene_2" data-name="Ebene 2" xmlns="http://www.w3.org/2000/svg" viewBox="0 0 336.91 334.55">
  <defs>
    <style>
      .cls-1 {
        fill: #3f2c20;
        stroke-width: 0px;
      }
    </style>
  </defs>
  <g id="_1" data-name="1">
    <g>
      <polygon class="cls-1" points="208.3 193.01 241.34 172.18 238.51 134.63 211.22 98.8 204.64 76.39 171.23 55.98 127.95 58.81 103.01 79.51 96.42 94.76 78.54 112.44 73.84 159.49 99.25 191.51 111.02 192.8 96.5 219.96 90.07 266.1 105.19 312.83 141.5 334.55 196.72 330.77 231.52 296.73 225.47 231.3 208.3 193.01"/>
      <polygon class="cls-1" points="88.57 218.85 88.77 217.44 89.44 216.18 98.38 199.47 98.38 199.47 95.06 199.1 92.98 196.49 67.57 164.47 65.56 161.92 65.88 158.7 70.58 111.65 70.87 108.78 72.92 106.76 89.69 90.16 95.67 76.34 96.43 74.58 97.9 73.35 122.84 52.65 124.83 50.99 127.43 50.82 140.22 49.99 127.77 36.74 121.96 22.29 99.97 2.68 61.81 0 28.01 22.19 23.23 49.64 4.87 71.15 0 110.11 29.13 129.86 13.99 166.14 8.66 228.15 39.33 260.41 82.34 263.57 88.57 218.85"/>
      <g>
        <polygon class="cls-1" points="208.3 193.01 241.34 172.18 238.51 134.63 211.22 98.8 204.64 76.39 198.17 72.44 198.17 72.44 204.64 76.39 211.22 98.8 238.51 134.63 241.34 172.18 208.3 193.01 225.47 231.3 228.4 263.02 228.4 263.02 225.47 231.3 208.3 193.01"/>
        <polygon class="cls-1" points="310.5 152.64 327.9 134.36 336.91 102.72 315.2 75.58 309.16 47.34 281.73 31.42 234.19 34.37 211.5 52.31 205.51 65.53 204.21 66.76 208.81 69.57 211.44 71.18 212.31 74.14 218.48 95.13 244.88 129.78 246.31 131.67 246.49 134.03 249.31 171.58 249.67 176.38 245.6 178.94 218.44 196.07 232.77 228.03 233.31 229.24 233.43 230.56 236.88 267.86 246.53 273.35 296.77 270.07 328.43 240.57 325.56 175.85 310.5 152.64"/>
      </g>
    </g>
  </g>
</svg>