<?xml version="1.0" encoding="UTF-8"?>
<svg id="Ebene_2" data-name="Ebene 2" xmlns="http://www.w3.org/2000/svg" viewBox="0 0 370.86 361.97">
  <defs>
    <style>
      .cls-1 {
        fill: #3f2c20;
        stroke-width: 0px;
      }
    </style>
  </defs>
  <g id="_1" data-name="1">
    <g>
      <path class="cls-1" d="M230.7,4.14l-16.26-4.14-25.82,1.91-27.1,12.75-10.08,8.33-7.84-2.93-14.87,2.27-5.92,5.46v6.08l13.87.08h0s-22.82,11.95-22.82,11.95l-18.95,22.65-13.25,26.75,1.34,13.01-27.87,23.76-23.96,46.96-17.39,53.39L0,283.03l7.63,28.41,12.42-16.71,7.24-17.27,16.88-33.98,9.85-57.93,13.37-43.45,20.7-23.41,3.14,5.75,14.17,2.89,19.45-8.21,9.96-8.3h.6l-2.12,6.17,1.77,8.36h8.53l6.95-2.15,4.7-6.21,2.13,2.13,11.79,4.08,21.64-4.95,22.68-14.49,19.43-31.73,5.76-27.75v-25.81l-7.97-14.35ZM163.61,90.14l-4.98,4.64-4.63,6.06-6.8,4.18-4.53-4.37,5.54-5.37,7.6-3.6-3.81-6.49-.59-6.85,3.83-5.37,7.08.37,3.73,7.45-2.42,9.35ZM171.33,47.98l-3.41,6.41-4.68,1.21-3.08-2.71,1.41-5.56,3.08-4.35-4.49-6.22,1.1-7.08,5.05-5.05,9.35,1.26v7.83l-4.34,8.34v5.92ZM215.06,55.37l-3.88,16.8v14.8l-10.54,15.98-14.42,6.14-8.32-6.14-2.22-11.73,19.41-19.05,11.25-22.28,2.62-17.26-5.24-17.65,5.79,2.68,5.55,19.59v18.12Z"/>
      <polygon class="cls-1" points="166.03 190.71 128.74 250.67 87.08 342.12 90.73 353.21 136.11 267.65 175.68 190.71 166.03 190.71"/>
      <polygon class="cls-1" points="246.23 170.08 203.53 244.08 166.03 324.69 166.03 335.26 216.31 247.02 255.88 170.08 246.23 170.08"/>
      <polygon class="cls-1" points="279.44 219.41 243.82 287.41 229.05 361.97 235.58 359.97 253.24 299.46 282.88 226.98 279.44 219.41"/>
      <path class="cls-1" d="M347.3,37.24l-49.64-12.62-50.99,7.65v12.85l-.17.8-5.76,27.75-.28,1.36-.73,1.19-9.58,15.64.14.07-14.83,29.4-20.29,30.76,1.76,14.08,14.78,4.29,20.58-10.55,18.25-23.78,21.32-28.66.67-.9,6.42,4.78-16.3,21.92,13.11,9.21,9.47,20.6-13.09,26.18,13.09,7.81,20-4.15,16.82-29.85,18.1-16.01-.43,22.23,10.94,2.99,13.46-9.21,4.7-53.41,2.03-39.14-23.56-33.27ZM342.46,59.7h-4.98l-1.16-4.97,4.32-1.85,3.57,1.35-1.75,5.47Z"/>
      <polygon class="cls-1" points="209.23 115.99 195.12 125 193.95 125.75 192.6 126.06 170.96 131.01 169.47 131.36 164 138.55 155.8 152.24 164.38 159.05 178.71 158.16 185.57 153.25 186.87 150.16 208.66 117.13 209.23 115.99"/>
    </g>
  </g>
</svg>